<?xml version="1.0" encoding="utf-8"?>
<!-- Generator: Adobe Illustrator 19.0.0, SVG Export Plug-In . SVG Version: 6.00 Build 0)  -->
<svg version="1.1" id="Layer_1" xmlns="http://www.w3.org/2000/svg" xmlns:xlink="http://www.w3.org/1999/xlink" x="0px" y="0px"
	 viewBox="0 0 96 96" style="enable-background:new 0 0 96 96;" xml:space="preserve">
<style type="text/css">
	.st0{fill:#333333;}
</style>
<g id="XMLID_2_">
	<path id="XMLID_4_" class="st0" d="M72.6,67.3c0,0.6-0.2,1.1-0.6,1.5c-0.4,0.4-0.9,0.6-1.5,0.6H55c0,0.4,0.1,1.4,0.2,2.9
		c0.1,1.6,0.2,2.8,0.2,3.6c0,0.6-0.2,1-0.6,1.4S53.9,78,53.4,78H42.6c-0.6,0-1-0.2-1.4-0.6s-0.6-0.9-0.6-1.4c0-0.8,0.1-2.1,0.2-3.6
		s0.2-2.6,0.2-2.9H25.5c-0.6,0-1.1-0.2-1.5-0.6c-0.4-0.4-0.6-0.9-0.6-1.5s0.2-1.1,0.6-1.5l13.5-13.5h-7.7c-0.6,0-1.1-0.2-1.5-0.6
		c-0.4-0.4-0.6-0.9-0.6-1.5c0-0.6,0.2-1.1,0.6-1.5l13.5-13.5h-6.6c-0.6,0-1.1-0.2-1.5-0.6C33.2,34.1,33,33.6,33,33s0.2-1.1,0.6-1.5
		l12.9-12.9c0.4-0.4,0.9-0.6,1.5-0.6s1.1,0.2,1.5,0.6l12.9,12.9c0.4,0.4,0.6,0.9,0.6,1.5s-0.2,1.1-0.6,1.5c-0.4,0.4-0.9,0.6-1.5,0.6
		h-6.6l13.5,13.5c0.4,0.4,0.6,0.9,0.6,1.5c0,0.6-0.2,1.1-0.6,1.5c-0.4,0.4-0.9,0.6-1.5,0.6h-7.7L72,65.8
		C72.4,66.2,72.6,66.7,72.6,67.3z"/>
</g>
</svg>
